<svg width="167" height="154" viewBox="0 0 167 154" fill="none" xmlns="http://www.w3.org/2000/svg">
<path d="M96.1744 86.8472C94.816 87.1514 93.493 87.715 92.2875 88.5024C89.1467 90.5037 87.3194 93.3604 88.2063 94.8826C89.0933 96.4047 92.3583 96.0154 95.4991 94.0141C96.7209 93.2545 97.8063 92.2837 98.6884 91.1618C99.0978 90.6196 99.1713 89.9442 98.8761 89.4393L97.7239 87.4619C97.4307 86.9554 96.8226 86.7145 96.1744 86.8472Z" fill="#D5D6DB"/>
<path d="M88.2875 59.8542C87.3025 60.075 86.3431 60.4838 85.4688 61.0548C83.192 62.5056 81.8662 64.577 82.5088 65.6798C83.1514 66.7826 85.5199 66.5001 87.7965 65.0494C88.6824 64.4983 89.4693 63.7941 90.1091 62.9804C90.4056 62.5875 90.4587 62.0982 90.2447 61.7321L89.4105 60.3003C89.1982 59.9331 88.7576 59.7581 88.2875 59.8542Z" fill="#D5D6DB"/>
<path d="M75.4733 60.9845C75.254 60.96 75.0202 61.0184 74.8174 61.1479L69.4693 64.5562C69.0219 64.8404 68.8429 65.3877 69.0698 65.7789C69.1217 65.8685 69.1927 65.9451 69.279 66.0041L82.4606 75.089L100.294 63.7243L75.4733 60.9845Z" fill="#029BC5"/>
<path d="M131.85 59.6999L83.3181 90.252L54.6054 101.677L39.9623 104.588L38.3513 101.851L119.246 51.9043C121.657 50.4095 124.343 49.4919 127.032 49.2448C128.209 49.1429 129.372 49.1821 130.493 49.3609C131.487 49.5116 132.43 49.8023 133.294 50.2244C134.258 50.7026 136.092 50.7578 136.687 51.7106C136.689 51.7091 138.091 56.0835 131.85 59.6999Z" fill="#E1E6E9"/>
<path d="M83.9615 86.2094L62.9662 119.679C62.704 120.15 62.8597 120.676 63.3135 120.855C63.5921 120.965 63.933 120.922 64.2194 120.74L69.5634 117.35C70.5913 116.697 71.5014 115.869 72.2375 114.915L112.954 67.0462L83.9615 86.2094Z" fill="#029BC5"/>
<path d="M30.9819 85.092C30.6317 84.9723 30.2149 85.0344 29.8631 85.2584L25.4456 88.0718C24.8437 88.4549 24.6038 89.1913 24.9097 89.717C24.9679 89.8169 25.0436 89.9048 25.1344 89.9773L37.5111 99.8896L50.5241 91.7615L30.9819 85.092Z" fill="#029BC5"/>
<path d="M41.6595 101.676L34.998 111.006C34.9003 111.14 34.9233 111.308 35.0492 111.382C35.1401 111.435 35.2641 111.425 35.3649 111.357L39.4931 108.741C39.5252 108.721 39.5542 108.696 39.5782 108.667L49.3118 96.8319L41.6595 101.676Z" fill="#029BC5"/>
<path d="M129.697 49.7631C128.542 49.5777 127.344 49.5381 126.132 49.6447C124.951 51.2958 124.196 53.1505 123.943 55.0239C123.924 55.4002 124.227 55.6711 124.62 55.6289C124.742 55.6156 124.864 55.5727 124.973 55.504L132.581 50.6597C131.692 50.2211 130.72 49.9192 129.697 49.7631Z" fill="#029BC5"/>
<path d="M113.117 58.6713L118.084 55.5343L122.711 63.4033L117.744 66.5403L113.117 58.6713Z" fill="#D5D6DB"/>
<path d="M109.992 61.7836C109.394 62.1627 109.154 62.8915 109.458 63.4113L109.95 64.2532C110.274 64.7597 111.014 64.8488 111.602 64.4521C112.162 64.0743 112.387 63.3876 112.117 62.8806L111.625 62.0386C111.321 61.5193 110.591 61.405 109.992 61.7836Z" fill="#3A556A"/>
<path d="M105.528 64.5561C104.929 64.9352 104.69 65.664 104.994 66.1837L105.486 67.0257C105.81 67.5322 106.549 67.6212 107.137 67.2245C107.697 66.8467 107.923 66.1601 107.653 65.653L107.161 64.811C106.857 64.2919 106.126 64.1777 105.528 64.5561Z" fill="#3A556A"/>
<path d="M101.062 67.3293C100.464 67.709 100.226 68.4369 100.529 68.9561L101.021 69.7981C101.345 70.3046 102.085 70.3936 102.673 69.9969C103.233 69.6191 103.458 68.9325 103.188 68.4255L102.696 67.5835C102.392 67.0638 101.661 66.95 101.062 67.3293Z" fill="#3A556A"/>
<path d="M96.5975 70.1018C95.9996 70.4814 95.7612 71.2094 96.0648 71.7286L96.5571 72.5706C96.881 73.0771 97.6202 73.1661 98.2085 72.7694C98.7683 72.3916 98.9938 71.705 98.724 71.1979L98.2317 70.356C97.9276 69.8364 97.196 69.7226 96.5975 70.1018Z" fill="#3A556A"/>
<path d="M92.1335 72.8744C91.5353 73.2543 91.2967 73.9825 91.6005 74.502L92.0931 75.3443C92.3968 75.8636 93.1281 75.9773 93.7264 75.5983C94.3248 75.2193 94.5637 74.4911 94.26 73.9719L93.7674 73.1295C93.4645 72.6098 92.7335 72.4953 92.1348 72.8736C92.1343 72.874 92.134 72.8741 92.1335 72.8744Z" fill="#3A556A"/>
<path d="M87.6691 75.6469C87.0709 76.0267 86.8324 76.755 87.1362 77.2744L87.6288 78.1168C87.9325 78.636 88.6637 78.7498 89.2621 78.3708C89.8604 77.9918 90.0993 77.2636 89.7957 76.7443L89.3031 75.902C89.0002 75.3822 88.2692 75.2678 87.6704 75.6461C87.6699 75.6464 87.6694 75.6467 87.6691 75.6469Z" fill="#3A556A"/>
<path d="M83.2045 78.4194C82.6063 78.7992 82.3678 79.5274 82.6716 80.0469L83.1642 80.8892C83.4686 81.408 84.2002 81.5205 84.7979 81.1411C85.3946 80.7622 85.633 80.0356 85.3308 79.5169L84.8382 78.6746C84.5346 78.155 83.8034 78.0407 83.2045 78.4194Z" fill="#3A556A"/>
<path d="M78.7399 81.1918C78.1417 81.5716 77.9032 82.2999 78.207 82.8194L78.6996 83.6617C79.004 84.1805 79.7356 84.2931 80.3333 83.9136C80.93 83.5347 81.1684 82.8081 80.8662 82.2894L80.3736 81.4471C80.07 80.9274 79.3388 80.8131 78.7399 81.1918Z" fill="#3A556A"/>
<path d="M74.2756 83.9643C73.6773 84.3441 73.4388 85.0723 73.7426 85.5918L74.2352 86.4341C74.5396 86.9529 75.2712 87.0655 75.869 86.686C76.4657 86.3071 76.7041 85.5805 76.4018 85.0619L75.9092 84.2196C75.6054 83.7001 74.8742 83.5858 74.2756 83.9643Z" fill="#3A556A"/>
<path d="M69.8097 86.7375C69.2114 87.1165 68.9725 87.8447 69.2762 88.3639L69.2768 88.365L69.7694 89.2074C70.0738 89.7261 70.8054 89.8387 71.4031 89.4592C71.9999 89.0804 72.2382 88.3537 71.936 87.8351L71.4434 86.9927C71.1399 86.4731 70.4086 86.3588 69.8097 86.7375Z" fill="#3A556A"/>
<path d="M65.3466 89.5092C64.7483 89.8882 64.5094 90.6164 64.813 91.1356L64.8137 91.1367L65.3063 91.979C65.6107 92.4978 66.3423 92.6104 66.94 92.2309C67.5368 91.8521 67.7752 91.1254 67.4729 90.6068L66.9803 89.7645C66.6765 89.245 65.9453 89.1307 65.3466 89.5092Z" fill="#3A556A"/>
</svg>
