<svg width="167" height="154" viewBox="0 0 167 154" fill="none" xmlns="http://www.w3.org/2000/svg">
<path d="M96.1746 86.8472C94.8163 87.1514 93.4933 87.715 92.2877 88.5024C89.1469 90.5037 87.3196 93.3604 88.2066 94.8826C89.0935 96.4047 92.3586 96.0154 95.4993 94.0141C96.7211 93.2545 97.8065 92.2837 98.6887 91.1618C99.0981 90.6196 99.1715 89.9442 98.8763 89.4393L97.7241 87.4619C97.431 86.9554 96.8229 86.7145 96.1746 86.8472Z" fill="#D5D6DB"/>
<path d="M88.2875 59.8542C87.3025 60.075 86.3431 60.4838 85.4688 61.0548C83.192 62.5056 81.8662 64.577 82.5088 65.6798C83.1514 66.7826 85.5199 66.5001 87.7965 65.0494C88.6824 64.4983 89.4693 63.7941 90.1091 62.9804C90.4056 62.5875 90.4587 62.0982 90.2447 61.7321L89.4105 60.3003C89.1982 59.9331 88.7576 59.7581 88.2875 59.8542Z" fill="#D5D6DB"/>
<path d="M75.4735 60.9845C75.2543 60.96 75.0204 61.0184 74.8177 61.1479L69.4695 64.5562C69.0221 64.8404 68.8431 65.3877 69.0701 65.7789C69.122 65.8685 69.193 65.9451 69.2792 66.0041L82.4609 75.089L100.294 63.7243L75.4735 60.9845Z" fill="#029BC5"/>
<path d="M131.85 59.6999L83.3184 90.252L54.6056 101.677L39.9625 104.588L38.3516 101.851L119.247 51.9043C121.657 50.4095 124.343 49.4919 127.032 49.2448C128.209 49.1429 129.372 49.1821 130.493 49.3609C131.487 49.5116 132.43 49.8023 133.294 50.2244C134.258 50.7026 136.093 50.7578 136.687 51.7106C136.689 51.7091 138.091 56.0835 131.85 59.6999Z" fill="#E1E6E9"/>
<path d="M83.9617 86.2094L62.9665 119.679C62.7042 120.15 62.8599 120.676 63.3138 120.855C63.5923 120.965 63.9333 120.922 64.2197 120.74L69.5637 117.35C70.5915 116.697 71.5016 115.869 72.2378 114.915L112.954 67.0462L83.9617 86.2094Z" fill="#029BC5"/>
<path d="M30.9821 85.092C30.6319 84.9723 30.2151 85.0344 29.8633 85.2584L25.4458 88.0718C24.8439 88.4549 24.604 89.1913 24.9099 89.717C24.9682 89.8169 25.0439 89.9048 25.1346 89.9773L37.5114 99.8896L50.5244 91.7615L30.9821 85.092Z" fill="#029BC5"/>
<path d="M41.6599 101.676L34.9985 111.006C34.9008 111.14 34.9238 111.308 35.0497 111.382C35.1406 111.435 35.2646 111.425 35.3654 111.357L39.4936 108.741C39.5257 108.721 39.5547 108.696 39.5787 108.667L49.3123 96.8319L41.6599 101.676Z" fill="#029BC5"/>
<path d="M129.697 49.7631C128.542 49.5777 127.345 49.5381 126.132 49.6447C124.951 51.2958 124.196 53.1505 123.943 55.0239C123.924 55.4002 124.228 55.6711 124.621 55.6289C124.743 55.6156 124.864 55.5727 124.973 55.504L132.581 50.6597C131.692 50.2211 130.721 49.9192 129.697 49.7631Z" fill="#029BC5"/>
<path d="M113.118 58.6713L118.085 55.5343L122.711 63.4033L117.744 66.5403L113.118 58.6713Z" fill="#D5D6DB"/>
<path d="M109.992 61.7836C109.393 62.1627 109.154 62.8915 109.458 63.4113L109.95 64.2532C110.274 64.7597 111.013 64.8488 111.602 64.4521C112.161 64.0743 112.387 63.3876 112.117 62.8806L111.625 62.0386C111.321 61.5193 110.59 61.405 109.992 61.7836Z" fill="#3A556A"/>
<path d="M105.527 64.5561C104.929 64.9352 104.69 65.664 104.994 66.1837L105.486 67.0257C105.81 67.5322 106.549 67.6212 107.137 67.2245C107.697 66.8467 107.922 66.1601 107.653 65.653L107.16 64.811C106.857 64.2919 106.126 64.1777 105.527 64.5561Z" fill="#3A556A"/>
<path d="M101.062 67.3293C100.464 67.709 100.226 68.4369 100.529 68.9561L101.021 69.7981C101.345 70.3046 102.085 70.3936 102.673 69.9969C103.233 69.6191 103.458 68.9325 103.188 68.4255L102.696 67.5835C102.392 67.0638 101.661 66.95 101.062 67.3293Z" fill="#3A556A"/>
<path d="M96.5975 70.1018C95.9996 70.4814 95.7612 71.2094 96.0648 71.7286L96.5571 72.5706C96.881 73.0771 97.6202 73.1661 98.2085 72.7694C98.7683 72.3916 98.9938 71.705 98.724 71.1979L98.2317 70.356C97.9276 69.8364 97.196 69.7226 96.5975 70.1018Z" fill="#3A556A"/>
<path d="M92.1337 72.8744C91.5355 73.2543 91.297 73.9825 91.6008 74.502L92.0934 75.3443C92.397 75.8636 93.1283 75.9773 93.7267 75.5983C94.325 75.2193 94.5639 74.4911 94.2603 73.9719L93.7677 73.1295C93.4648 72.6098 92.7338 72.4953 92.135 72.8736C92.1345 72.874 92.1342 72.8741 92.1337 72.8744Z" fill="#3A556A"/>
<path d="M87.6689 75.6469C87.0707 76.0267 86.8321 76.755 87.1359 77.2744L87.6285 78.1168C87.9322 78.636 88.6635 78.7498 89.2618 78.3708C89.8602 77.9918 90.0991 77.2636 89.7954 76.7443L89.3028 75.902C88.9999 75.3822 88.2689 75.2678 87.6702 75.6461C87.6697 75.6464 87.6691 75.6467 87.6689 75.6469Z" fill="#3A556A"/>
<path d="M83.2045 78.4194C82.6063 78.7992 82.3678 79.5274 82.6716 80.0469L83.1642 80.8892C83.4686 81.408 84.2002 81.5205 84.7979 81.1411C85.3946 80.7622 85.633 80.0356 85.3308 79.5169L84.8382 78.6746C84.5346 78.155 83.8034 78.0407 83.2045 78.4194Z" fill="#3A556A"/>
<path d="M78.7402 81.1918C78.1419 81.5716 77.9034 82.2999 78.2072 82.8194L78.6998 83.6617C79.0042 84.1805 79.7358 84.2931 80.3336 83.9136C80.9303 83.5347 81.1687 82.8081 80.8664 82.2894L80.3738 81.4471C80.0703 80.9274 79.339 80.8131 78.7402 81.1918Z" fill="#3A556A"/>
<path d="M74.2758 83.9643C73.6776 84.3441 73.4391 85.0723 73.7429 85.5918L74.2354 86.4341C74.5399 86.9529 75.2715 87.0655 75.8692 86.686C76.4659 86.3071 76.7043 85.5805 76.402 85.0619L75.9095 84.2196C75.6057 83.7001 74.8744 83.5858 74.2758 83.9643Z" fill="#3A556A"/>
<path d="M69.81 86.7375C69.2116 87.1165 68.9727 87.8447 69.2764 88.3639L69.277 88.365L69.7696 89.2074C70.0741 89.7261 70.8057 89.8387 71.4034 89.4592C72.0001 89.0804 72.2385 88.3537 71.9362 87.8351L71.4436 86.9927C71.1401 86.4731 70.4089 86.3588 69.81 86.7375Z" fill="#3A556A"/>
<path d="M65.3466 89.5092C64.7483 89.8882 64.5094 90.6164 64.813 91.1356L64.8137 91.1367L65.3063 91.979C65.6107 92.4978 66.3423 92.6104 66.94 92.2309C67.5368 91.8521 67.7752 91.1254 67.4729 90.6068L66.9803 89.7645C66.6765 89.245 65.9453 89.1307 65.3466 89.5092Z" fill="#3A556A"/>
</svg>
