<svg width="46" height="44" viewBox="0 0 46 44" fill="none" xmlns="http://www.w3.org/2000/svg">
<path d="M37.6105 12.9904C38.3018 14.1878 38.2092 15.6136 37.3677 16.7111L18.8939 40.8182C18.1321 41.8123 16.8776 42.3191 15.5948 42.0729C14.3387 41.8313 13.3427 40.9156 12.997 39.6841L10.2635 29.9555L9.97886 28.9436L9.24487 28.1911L2.18643 20.9595C1.29269 20.0444 0.9977 18.724 1.41656 17.5154C1.83111 16.3206 2.87082 15.4536 4.15272 15.2856L34.267 11.3404C35.6381 11.1604 36.9192 11.7931 37.6105 12.9904Z" fill="white"/>
<path d="M10.2636 29.9554L12.997 39.6841C13.3427 40.9156 14.3386 41.8312 15.5948 42.0729C16.8776 42.3192 18.1321 41.8123 18.8939 40.8182L37.3677 16.7111C38.2092 15.6136 38.3018 14.1878 37.6105 12.9904L9.97889 28.9435L10.2636 29.9554Z" fill="white"/>
<path d="M21.2234 22.4516C21.5045 22.9386 21.3381 23.5617 20.8505 23.8432L10.2638 29.9554L9.97911 28.9435L9.24512 28.191L19.8318 22.0788C20.3194 21.7973 20.9422 21.9647 21.2234 22.4516Z" fill="url(#paint0_linear_202_1536)"/>
<path d="M10.2637 29.9554L20.8504 23.8432C21.338 23.5617 21.5045 22.9386 21.2233 22.4516L9.97905 28.9435L10.2637 29.9554Z" fill="url(#paint1_linear_202_1536)"/>
<defs>
<linearGradient id="paint0_linear_202_1536" x1="17.4079" y1="23.5442" x2="18.5455" y2="25.8252" gradientUnits="userSpaceOnUse">
<stop stop-color="#747DEF"/>
<stop offset="1" stop-color="#5E3BE1"/>
</linearGradient>
<linearGradient id="paint1_linear_202_1536" x1="17.9029" y1="24.4017" x2="18.507" y2="25.5259" gradientUnits="userSpaceOnUse">
<stop stop-color="#747DEF"/>
<stop offset="1" stop-color="#5E3BE1"/>
</linearGradient>
</defs>
</svg>
